<svg xmlns="http://www.w3.org/2000/svg" viewBox="0 0 1524.716350 459.561422" fill="url(#dsf-grad-dark)" role="img" aria-label="DSF logo">
  <defs>
    <linearGradient id="dsf-grad-dark" gradientUnits="userSpaceOnUse" x1="0" y1="229.780711" x2="1524.716350" y2="229.780711">
      <stop offset="0" stop-color="#f8fafc"/>
      <stop offset="1" stop-color="#94a3b8"/>
    </linearGradient>
  </defs>
  <title>DSF - Digital Smart Format</title>
  <g transform="translate(-10.194022,460.000000) scale(0.100000,-0.100000)">
    <path d="M15110 4588 c-74 -5 -138 -13 -142 -16 -12 -13 -208 -939 -208 -984
0 -21 -7 -21 177 -2 l51 6 42 122 c70 200 266 746 293 819 l26 67 -52 -1 c-29
-1 -113 -6 -187 -11z"/>
    <path d="M14558 4553 c-64 -4 -68 -5 -74 -31 -3 -15 -10 -43 -15 -62 -37 -150
-193 -910 -188 -914 2 -2 68 1 146 7 117 8 143 13 147 26 3 9 48 216 101 461
53 245 100 462 104 483 l9 37 -82 -2 c-44 -1 -111 -3 -148 -5z"/>
    <path d="M14071 4519 c-56 -4 -105 -10 -108 -13 -12 -11 -217 -986 -209 -993
6 -6 325 13 332 20 3 2 22 87 44 188 66 309 170 800 170 805 0 6 -104 3 -229
-7z"/>
    <path d="M13555 4484 c-110 -8 -450 -32 -755 -54 -1284 -92 -1541 -110 -1840
-131 -173 -12 -316 -22 -317 -23 -6 -5 -74 -294 -188 -801 -70 -308 -153 -677
-185 -820 -32 -143 -129 -577 -215 -965 -86 -388 -169 -765 -185 -838 -17 -74
-30 -138 -30 -143 0 -14 47 -12 685 36 1166 87 1300 98 1307 104 3 3 64 269
133 591 70 322 130 588 134 591 3 3 233 23 511 43 278 20 508 40 512 44 4 4
27 106 53 227 96 463 106 513 129 628 l23 117 -34 0 c-19 0 -251 -16 -515 -35
-265 -20 -483 -33 -486 -30 -7 7 70 369 81 376 5 3 50 9 100 13 378 26 1082
78 1084 80 2 1 13 55 148 671 77 354 72 327 60 330 -5 1 -100 -4 -210 -11z"/>
    <path d="M9555 4215 c-324 -24 -916 -66 -1315 -95 -399 -28 -842 -60 -985 -71
-894 -67 -1295 -156 -1561 -344 -108 -77 -168 -157 -216 -290 -28 -76 -214
-933 -204 -942 6 -7 495 -140 1261 -344 946 -252 1035 -281 1097 -346 20 -21
23 -35 22 -96 -1 -111 -45 -227 -109 -292 -85 -84 -207 -119 -425 -119 -167
-1 -200 7 -234 56 -25 35 -20 83 30 293 26 108 44 199 40 202 -4 4 -147 -3
-319 -15 -600 -42 -1531 -112 -1534 -116 -3 -3 -107 -468 -152 -681 -44 -208
-37 -328 24 -425 91 -144 340 -208 765 -197 243 6 2226 153 2656 197 683 70
992 199 1122 470 22 47 50 121 61 165 39 153 241 1079 237 1083 -7 6 -806 215
-1766 462 -603 155 -690 183 -724 231 -21 31 -20 81 3 127 53 103 154 139 466
165 88 8 162 12 165 10 2 -2 -12 -84 -32 -181 -20 -97 -36 -178 -35 -179 3 -2
1974 144 2053 153 l61 6 97 421 c53 232 114 493 135 580 l38 157 -66 -1 c-36
-1 -331 -21 -656 -44z"/>
    <path d="M4025 3843 c-215 -14 -576 -38 -930 -63 -231 -17 -550 -39 -710 -50
-159 -11 -355 -25 -435 -31 l-144 -11 -151 -117 c-82 -64 -331 -258 -552 -430
-222 -172 -405 -316 -408 -322 -4 -5 -60 -262 -125 -571 -65 -310 -133 -628
-150 -708 -33 -153 -213 -1011 -281 -1339 -22 -106 -39 -195 -37 -196 2 -2
145 7 318 20 619 47 1403 105 1875 140 1193 88 1428 117 1724 214 311 102 459
236 547 494 27 78 164 691 353 1572 192 894 192 896 168 1011 -21 96 -44 139
-111 202 -100 95 -279 161 -491 182 -93 9 -344 11 -460 3z m-928 -811 c56 -39
58 -73 18 -262 -32 -155 -238 -1129 -306 -1450 -17 -80 -40 -167 -51 -193 -29
-67 -92 -120 -175 -146 -66 -21 -298 -51 -396 -51 -42 0 -48 2 -43 18 3 9 17
71 30 137 47 230 369 1743 401 1882 l16 71 97 7 c53 3 106 8 117 10 11 1 74 2
140 2 108 -2 123 -4 152 -25z"/>
    <path d="M1108 3641 c-130 -9 -240 -19 -243 -23 -9 -9 -117 -519 -111 -525 6
-6 76 48 474 364 133 106 242 195 242 198 0 8 -106 4 -362 -14z"/>
    <path d="M14182 3154 c-90 -7 -165 -14 -167 -16 -10 -10 -207 -969 -201 -976
4 -4 268 16 271 20 2 3 53 186 212 758 29 107 52 202 51 210 -3 13 -23 14
-166 4z"/>
    <path d="M13655 3118 c-66 -4 -125 -10 -131 -12 -6 -2 -18 -39 -27 -83 -9 -43
-54 -262 -101 -487 -47 -225 -85 -410 -83 -411 8 -7 298 22 305 30 9 10 202
927 202 958 0 11 -7 17 -22 16 -13 -1 -77 -6 -143 -11z"/>
  </g>
</svg>
